<svg width="218" height="71" viewBox="0 0 218 71" fill="none" xmlns="http://www.w3.org/2000/svg">
<rect x="1.46004" y="0.833699" width="214.959" height="68.7825" rx="6.31676" stroke="white" stroke-width="1.40373"/>
<path d="M44.3199 36.0622C44.3396 34.5307 44.7464 33.0291 45.5024 31.6971C46.2584 30.3651 47.339 29.2459 48.6438 28.4438C47.8149 27.26 46.7215 26.2858 45.4502 25.5986C44.179 24.9114 42.765 24.53 41.3206 24.4848C38.2395 24.1614 35.2525 26.3285 33.6824 26.3285C32.0819 26.3285 29.6645 24.5169 27.0614 24.5705C25.3776 24.6249 23.7366 25.1145 22.2983 25.9917C20.86 26.8688 19.6735 28.1036 18.8543 29.5757C15.3057 35.7195 17.9526 44.7488 21.3519 49.715C23.0526 52.1468 25.0402 54.8632 27.641 54.7669C30.1861 54.6613 31.1366 53.144 34.2086 53.144C37.2522 53.144 38.144 54.7669 40.7976 54.7056C43.5285 54.6613 45.2491 52.263 46.8902 49.8082C48.1121 48.0754 49.0524 46.1604 49.6762 44.1339C48.0896 43.4629 46.7356 42.3396 45.7831 40.9042C44.8306 39.4689 44.3217 37.7848 44.3199 36.0622Z" fill="white"/>
<path d="M39.3077 21.2187C40.7968 19.4312 41.5303 17.1336 41.3527 14.814C39.0778 15.0529 36.9764 16.1401 35.4673 17.8591C34.7294 18.6988 34.1643 19.6758 33.8042 20.734C33.4442 21.7923 33.2962 22.9112 33.3688 24.0267C34.5066 24.0384 35.6323 23.7918 36.661 23.3054C37.6898 22.819 38.5947 22.1055 39.3077 21.2187Z" fill="white"/>
<path d="M76.4909 48.6106H67.8058L65.7201 54.7692H62.0415L70.2678 31.9841H74.0898L82.3161 54.7692H78.5747L76.4909 48.6106ZM68.7053 45.7688H75.5896L72.1959 35.7739H72.1009L68.7053 45.7688Z" fill="white"/>
<path d="M100.082 46.4638C100.082 51.6261 97.3191 54.9428 93.1495 54.9428C92.0933 54.998 91.0428 54.7547 90.1184 54.2407C89.1941 53.7267 88.4331 52.9628 87.9227 52.0364H87.8438V60.2645H84.434V38.1569H87.7346V40.9199H87.7973C88.3311 39.9979 89.1049 39.238 90.0364 38.7208C90.9678 38.2037 92.022 37.9487 93.0868 37.983C97.3029 37.9831 100.082 41.3159 100.082 46.4638ZM96.5773 46.4638C96.5773 43.1006 94.8392 40.8894 92.1873 40.8894C89.5819 40.8894 87.8295 43.1471 87.8295 46.4638C87.8295 49.811 89.5819 52.0526 92.1873 52.0526C94.8392 52.0526 96.5773 49.8576 96.5773 46.4638Z" fill="white"/>
<path d="M118.366 46.4638C118.366 51.6261 115.603 54.9428 111.433 54.9428C110.377 54.998 109.327 54.7547 108.402 54.2407C107.478 53.7267 106.717 52.9628 106.207 52.0364H106.128V60.2645H102.718V38.1568H106.018V40.9199H106.081C106.615 39.9979 107.389 39.2379 108.32 38.7208C109.252 38.2037 110.306 37.9487 111.371 37.983C115.587 37.983 118.366 41.3158 118.366 46.4638ZM114.861 46.4638C114.861 43.1005 113.123 40.8894 110.471 40.8894C107.866 40.8894 106.113 43.1471 106.113 46.4638C106.113 49.8109 107.866 52.0525 110.471 52.0525C113.123 52.0525 114.861 49.8575 114.861 46.4638H114.861Z" fill="white"/>
<path d="M130.45 48.4207C130.703 50.6802 132.898 52.1638 135.897 52.1638C138.771 52.1638 140.839 50.6801 140.839 48.6428C140.839 46.8743 139.592 45.8153 136.639 45.0896L133.686 44.3782C129.502 43.3677 127.56 41.411 127.56 38.2358C127.56 34.3045 130.986 31.6042 135.851 31.6042C140.665 31.6042 143.966 34.3045 144.077 38.2358H140.635C140.429 35.962 138.549 34.5895 135.802 34.5895C133.055 34.5895 131.176 35.9781 131.176 37.9993C131.176 39.6102 132.376 40.5581 135.313 41.2837L137.823 41.9001C142.498 43.0056 144.441 44.8835 144.441 48.2163C144.441 52.4791 141.045 55.1489 135.645 55.1489C130.592 55.1489 127.18 52.5418 126.96 48.4205L130.45 48.4207Z" fill="white"/>
<path d="M151.8 34.2256V38.1569H154.959V40.8572H151.8V50.0152C151.8 51.438 152.432 52.1009 153.821 52.1009C154.196 52.0944 154.57 52.0681 154.943 52.022V54.7062C154.318 54.8229 153.684 54.8757 153.049 54.8639C149.685 54.8639 148.374 53.6006 148.374 50.3789V40.8572H145.958V38.1569H148.374V34.2256H151.8Z" fill="white"/>
<path d="M156.788 46.4641C156.788 41.2373 159.867 37.9529 164.667 37.9529C169.484 37.9529 172.548 41.2372 172.548 46.4641C172.548 51.7052 169.5 54.9753 164.667 54.9753C159.836 54.9753 156.788 51.7052 156.788 46.4641ZM169.073 46.4641C169.073 42.8786 167.43 40.7625 164.667 40.7625C161.904 40.7625 160.263 42.8948 160.263 46.4641C160.263 50.0639 161.904 52.1639 164.667 52.1639C167.43 52.1639 169.073 50.0639 169.073 46.4641H169.073Z" fill="white"/>
<path d="M175.359 38.1567H178.611V40.9842H178.69C178.91 40.1011 179.427 39.3207 180.155 38.7741C180.883 38.2275 181.776 37.9481 182.686 37.9829C183.079 37.9815 183.471 38.0242 183.854 38.1101V41.2996C183.358 41.148 182.84 41.0784 182.322 41.0935C181.827 41.0734 181.333 41.1608 180.874 41.3495C180.416 41.5383 180.004 41.8241 179.666 42.1872C179.329 42.5503 179.074 42.9821 178.919 43.453C178.764 43.924 178.713 44.4229 178.769 44.9155V54.7688H175.359L175.359 38.1567Z" fill="white"/>
<path d="M199.576 49.8901C199.117 52.9057 196.18 54.9753 192.423 54.9753C187.59 54.9753 184.59 51.7375 184.59 46.5429C184.59 41.3323 187.606 37.9529 192.279 37.9529C196.875 37.9529 199.765 41.1101 199.765 46.1469V47.3152H188.033V47.5213C187.978 48.1326 188.055 48.7485 188.257 49.3281C188.459 49.9076 188.782 50.4374 189.205 50.8825C189.628 51.3275 190.14 51.6775 190.709 51.9093C191.277 52.141 191.888 52.2492 192.501 52.2266C193.307 52.3021 194.116 52.1155 194.807 51.6945C195.498 51.2735 196.035 50.6407 196.338 49.8901L199.576 49.8901ZM188.049 44.9321H196.354C196.384 44.3824 196.301 43.8323 196.109 43.3163C195.917 42.8003 195.62 42.3296 195.238 41.9337C194.855 41.5378 194.395 41.2253 193.886 41.0157C193.377 40.8061 192.83 40.7041 192.279 40.7159C191.724 40.7126 191.173 40.8193 190.66 41.0298C190.146 41.2403 189.679 41.5505 189.285 41.9425C188.892 42.3345 188.58 42.8005 188.368 43.3136C188.156 43.8267 188.047 44.3768 188.049 44.9321V44.9321Z" fill="white"/>
<path d="M68.2779 14.8337C68.9928 14.7824 69.7102 14.8904 70.3783 15.1499C71.0463 15.4094 71.6485 15.814 72.1413 16.3344C72.6341 16.8548 73.0053 17.4781 73.2281 18.1593C73.4508 18.8405 73.5196 19.5627 73.4295 20.2737C73.4295 23.7714 71.5391 25.7819 68.2779 25.7819H64.3234V14.8337H68.2779ZM66.0238 24.2336H68.088C68.5988 24.2641 69.11 24.1804 69.5844 23.9884C70.0588 23.7965 70.4844 23.5012 70.8303 23.124C71.1761 22.7468 71.4335 22.2972 71.5837 21.808C71.7339 21.3188 71.7731 20.8023 71.6985 20.296C71.7677 19.7918 71.7245 19.2784 71.572 18.7928C71.4195 18.3072 71.1615 17.8613 70.8164 17.4871C70.4713 17.113 70.0478 16.8197 69.5761 16.6285C69.1044 16.4372 68.5962 16.3527 68.088 16.3809H66.0238V24.2336Z" fill="white"/>
<path d="M75.3502 21.6472C75.2983 21.1043 75.3604 20.5564 75.5326 20.0389C75.7048 19.5213 75.9832 19.0455 76.3501 18.6419C76.7169 18.2382 77.1641 17.9157 77.6629 17.695C78.1617 17.4744 78.7011 17.3604 79.2466 17.3604C79.792 17.3604 80.3314 17.4744 80.8302 17.695C81.329 17.9157 81.7762 18.2382 82.1431 18.6419C82.5099 19.0455 82.7884 19.5213 82.9606 20.0389C83.1327 20.5564 83.1948 21.1043 83.1429 21.6472C83.1958 22.1907 83.1345 22.7393 82.9627 23.2577C82.791 23.7761 82.5127 24.2528 82.1458 24.6573C81.7788 25.0617 81.3313 25.3849 80.832 25.606C80.3327 25.8272 79.7927 25.9414 79.2466 25.9414C78.7005 25.9414 78.1604 25.8272 77.6611 25.606C77.1618 25.3849 76.7143 25.0617 76.3474 24.6573C75.9804 24.2528 75.7021 23.7761 75.5304 23.2577C75.3587 22.7393 75.2973 22.1907 75.3502 21.6472ZM81.4657 21.6472C81.4657 19.8563 80.6612 18.809 79.2493 18.809C77.8319 18.809 77.0346 19.8563 77.0346 21.6472C77.0346 23.4525 77.832 24.4918 79.2493 24.4918C80.6612 24.4918 81.4658 23.4453 81.4658 21.6472H81.4657Z" fill="white"/>
<path d="M93.5016 25.7819H91.8101L90.1025 19.6968H89.9735L88.273 25.7819H86.5977L84.3203 17.5198H85.9741L87.4542 23.8243H87.576L89.2747 17.5198H90.839L92.5376 23.8243H92.6666L94.1395 17.5198H95.7701L93.5016 25.7819Z" fill="white"/>
<path d="M97.6856 17.5194H99.2552V18.8319H99.377C99.5837 18.3605 99.9324 17.9654 100.374 17.7015C100.816 17.4376 101.33 17.3182 101.843 17.3599C102.245 17.3297 102.648 17.3903 103.024 17.5373C103.399 17.6843 103.737 17.9138 104.011 18.2089C104.286 18.504 104.491 18.8572 104.61 19.2422C104.73 19.6272 104.761 20.0341 104.702 20.4329V25.7815H103.072V20.8424C103.072 19.5146 102.495 18.8543 101.289 18.8543C101.016 18.8416 100.744 18.8881 100.49 18.9905C100.237 19.093 100.009 19.249 99.8213 19.4478C99.634 19.6467 99.4918 19.8837 99.4046 20.1427C99.3174 20.4016 99.2872 20.6764 99.3161 20.9481V25.7816H97.6855L97.6856 17.5194Z" fill="white"/>
<path d="M107.301 14.2944H108.931V25.7819H107.301V14.2944Z" fill="white"/>
<path d="M111.198 21.6471C111.146 21.1041 111.208 20.5563 111.38 20.0387C111.552 19.5211 111.831 19.0453 112.198 18.6416C112.565 18.238 113.012 17.9155 113.511 17.6948C114.01 17.4741 114.549 17.3601 115.095 17.3601C115.64 17.3601 116.179 17.4741 116.678 17.6948C117.177 17.9155 117.624 18.238 117.991 18.6416C118.358 19.0453 118.637 19.5211 118.809 20.0387C118.981 20.5563 119.043 21.1041 118.991 21.6471C119.044 22.1907 118.983 22.7393 118.811 23.2577C118.639 23.776 118.361 24.2528 117.994 24.6572C117.627 25.0616 117.179 25.3847 116.68 25.6059C116.181 25.827 115.641 25.9413 115.095 25.9413C114.548 25.9413 114.008 25.827 113.509 25.6059C113.01 25.3847 112.562 25.0616 112.195 24.6572C111.828 24.2528 111.55 23.776 111.378 23.2577C111.206 22.7393 111.145 22.1907 111.198 21.6471ZM117.313 21.6471C117.313 19.8562 116.509 18.8089 115.097 18.8089C113.679 18.8089 112.882 19.8562 112.882 21.6472C112.882 23.4524 113.68 24.4917 115.097 24.4917C116.509 24.4917 117.313 23.4452 117.313 21.6471H117.313Z" fill="white"/>
<path d="M120.708 23.4452C120.708 21.9579 121.815 21.1006 123.781 20.9787L126.019 20.8497V20.1366C126.019 19.2639 125.442 18.7712 124.327 18.7712C123.417 18.7712 122.786 19.1054 122.605 19.6895H121.027C121.194 18.2704 122.528 17.3601 124.403 17.3601C126.474 17.3601 127.642 18.3913 127.642 20.1366V25.7817H126.073V24.6206H125.944C125.682 25.0371 125.314 25.3767 124.878 25.6046C124.442 25.8325 123.953 25.9406 123.462 25.9179C123.115 25.9539 122.765 25.9169 122.433 25.8092C122.101 25.7015 121.796 25.5255 121.536 25.2925C121.277 25.0596 121.069 24.7748 120.926 24.4566C120.784 24.1384 120.709 23.7939 120.708 23.4452ZM126.019 22.7392V22.0484L124.001 22.1774C122.864 22.2536 122.347 22.6406 122.347 23.369C122.347 24.1126 122.993 24.5453 123.88 24.5453C124.139 24.5716 124.402 24.5454 124.652 24.4682C124.901 24.3909 125.133 24.2643 125.332 24.0958C125.532 23.9273 125.695 23.7203 125.813 23.4873C125.931 23.2542 126.001 22.9998 126.019 22.7392Z" fill="white"/>
<path d="M129.785 21.6473C129.785 19.0366 131.127 17.3827 133.215 17.3827C133.731 17.3589 134.244 17.4826 134.692 17.7393C135.141 17.9959 135.507 18.375 135.749 18.8322H135.87V14.2944H137.501V25.7819H135.939V24.4765H135.81C135.55 24.9306 135.171 25.305 134.713 25.5591C134.256 25.8132 133.738 25.9373 133.215 25.918C131.113 25.9181 129.785 24.2642 129.785 21.6473ZM131.47 21.6473C131.47 23.3997 132.296 24.4542 133.677 24.4542C135.052 24.4542 135.901 23.3845 135.901 21.6544C135.901 19.9325 135.043 18.8475 133.677 18.8475C132.305 18.8475 131.47 19.9092 131.47 21.6473H131.47Z" fill="white"/>
<path d="M144.247 21.6472C144.195 21.1043 144.257 20.5564 144.43 20.0389C144.602 19.5213 144.88 19.0455 145.247 18.6419C145.614 18.2382 146.061 17.9157 146.56 17.695C147.059 17.4744 147.598 17.3604 148.144 17.3604C148.689 17.3604 149.229 17.4744 149.727 17.695C150.226 17.9157 150.673 18.2382 151.04 18.6419C151.407 19.0455 151.685 19.5213 151.858 20.0389C152.03 20.5564 152.092 21.1043 152.04 21.6472C152.093 22.1907 152.032 22.7393 151.86 23.2577C151.688 23.7761 151.41 24.2528 151.043 24.6573C150.676 25.0617 150.228 25.3849 149.729 25.606C149.23 25.8272 148.69 25.9414 148.144 25.9414C147.598 25.9414 147.058 25.8272 146.558 25.606C146.059 25.3849 145.611 25.0617 145.244 24.6573C144.877 24.2528 144.599 23.7761 144.427 23.2577C144.256 22.7393 144.194 22.1907 144.247 21.6472ZM150.363 21.6472C150.363 19.8563 149.558 18.809 148.146 18.809C146.729 18.809 145.932 19.8563 145.932 21.6472C145.932 23.4525 146.729 24.4918 148.146 24.4918C149.558 24.4918 150.363 23.4453 150.363 21.6472Z" fill="white"/>
<path d="M154.228 17.5194H155.797V18.8319H155.919C156.126 18.3605 156.475 17.9654 156.917 17.7015C157.359 17.4376 157.872 17.3182 158.385 17.3599C158.787 17.3297 159.191 17.3903 159.566 17.5373C159.941 17.6843 160.279 17.9138 160.554 18.2089C160.828 18.504 161.033 18.8572 161.153 19.2422C161.272 19.6272 161.304 20.0341 161.245 20.4329V25.7815H159.614V20.8424C159.614 19.5146 159.037 18.8543 157.831 18.8543C157.558 18.8416 157.286 18.8881 157.032 18.9905C156.779 19.093 156.551 19.249 156.364 19.4478C156.176 19.6467 156.034 19.8837 155.947 20.1427C155.86 20.4016 155.829 20.6764 155.858 20.9481V25.7816H154.228V17.5194Z" fill="white"/>
<path d="M170.458 15.4624V17.5571H172.248V18.9305H170.458V23.1789C170.458 24.0444 170.815 24.4234 171.626 24.4234C171.834 24.4227 172.042 24.4101 172.248 24.3857V25.7439C171.955 25.7963 171.659 25.8242 171.361 25.8273C169.548 25.8273 168.826 25.1894 168.826 23.5964V18.9304H167.514V17.557H168.826V15.4624H170.458Z" fill="white"/>
<path d="M174.476 14.2944H176.092V18.8475H176.221C176.438 18.3717 176.796 17.9743 177.247 17.7094C177.697 17.4446 178.219 17.3251 178.74 17.3674C179.14 17.3457 179.54 17.4124 179.911 17.563C180.282 17.7135 180.615 17.9441 180.887 18.2383C181.159 18.5325 181.362 18.883 181.483 19.2649C181.604 19.6468 181.639 20.0507 181.585 20.4476V25.7819H179.953V20.8499C179.953 19.5302 179.339 18.8618 178.186 18.8618C177.906 18.8388 177.624 18.8773 177.361 18.9747C177.097 19.072 176.857 19.2258 176.659 19.4254C176.461 19.6249 176.309 19.8653 176.213 20.1298C176.118 20.3942 176.081 20.6764 176.106 20.9565V25.7819H174.476L174.476 14.2944Z" fill="white"/>
<path d="M191.093 23.5508C190.871 24.3059 190.391 24.9591 189.737 25.396C189.083 25.833 188.295 26.0259 187.513 25.9411C186.969 25.9555 186.428 25.8512 185.928 25.6355C185.428 25.4199 184.981 25.098 184.617 24.6923C184.254 24.2865 183.984 23.8066 183.825 23.2858C183.666 22.7651 183.622 22.2159 183.696 21.6765C183.624 21.1355 183.668 20.5851 183.827 20.0628C183.986 19.5405 184.255 19.0583 184.616 18.649C184.977 18.2397 185.422 17.9128 185.921 17.6904C186.419 17.468 186.96 17.3553 187.506 17.36C189.805 17.36 191.192 18.9306 191.192 21.5251V22.0941H185.357V22.1854C185.332 22.4886 185.37 22.7938 185.469 23.0814C185.569 23.369 185.727 23.6327 185.934 23.8556C186.141 24.0784 186.393 24.2555 186.672 24.3755C186.952 24.4955 187.253 24.5557 187.558 24.5524C187.948 24.5992 188.343 24.529 188.693 24.3506C189.043 24.1722 189.332 23.8938 189.523 23.5507L191.093 23.5508ZM185.357 20.8881H189.53C189.551 20.6108 189.513 20.3323 189.42 20.0704C189.326 19.8086 189.179 19.5692 188.988 19.3676C188.796 19.166 188.564 19.0067 188.308 18.9C188.051 18.7933 187.775 18.7414 187.497 18.7478C187.215 18.7442 186.935 18.7972 186.674 18.9035C186.412 19.0098 186.175 19.1674 185.976 19.3668C185.776 19.5663 185.619 19.8037 185.513 20.0649C185.406 20.3262 185.354 20.6061 185.357 20.8881H185.357Z" fill="white"/>
</svg>
