<svg width="190" height="46" viewBox="0 0 190 46" fill="none" xmlns="http://www.w3.org/2000/svg">
<circle cx="5.72971" cy="17.5967" r="5.40329" fill="#DF8928"/>
<circle cx="5.72971" cy="28.4033" r="5.40329" fill="#DF8928"/>
<circle cx="16.5364" cy="17.5967" r="5.40329" fill="#DF8928"/>
<circle cx="16.5364" cy="28.4033" r="5.40329" fill="#DF8928"/>
<path d="M40.8806 17.7474C40.7404 17.6071 40.4798 17.4167 40.099 17.1762C39.7383 16.9357 39.2873 16.7052 38.7462 16.4848C38.2251 16.2643 37.654 16.0739 37.0327 15.9136C36.4114 15.7332 35.7801 15.643 35.1388 15.643C34.0164 15.643 33.1647 15.8534 32.5835 16.2743C32.0223 16.6952 31.7417 17.2864 31.7417 18.048C31.7417 18.6292 31.9221 19.0902 32.2828 19.4309C32.6436 19.7716 33.1847 20.0622 33.9062 20.3027C34.6277 20.5432 35.5296 20.8037 36.6118 21.0843C38.0147 21.425 39.2272 21.8459 40.2493 22.3469C41.2915 22.8279 42.0831 23.4692 42.6243 24.2709C43.1854 25.0525 43.466 26.0947 43.466 27.3974C43.466 28.5397 43.2556 29.5218 42.8347 30.3435C42.4138 31.1451 41.8326 31.7965 41.0911 32.2975C40.3495 32.7985 39.5078 33.1693 38.5659 33.4098C37.6239 33.6303 36.6218 33.7405 35.5596 33.7405C34.4974 33.7405 33.4352 33.6303 32.373 33.4098C31.3108 33.1894 30.2887 32.8787 29.3067 32.4779C28.3246 32.057 27.4228 31.556 26.6011 30.9748L28.4349 27.3974C28.6152 27.5777 28.9359 27.8182 29.3969 28.1189C29.8578 28.3994 30.419 28.69 31.0803 28.9907C31.7417 29.2712 32.4632 29.5117 33.2448 29.7122C34.0264 29.9126 34.8181 30.0128 35.6197 30.0128C36.7421 30.0128 37.5938 29.8224 38.175 29.4416C38.7562 29.0608 39.0468 28.5197 39.0468 27.8182C39.0468 27.1769 38.8164 26.6759 38.3554 26.3151C37.8945 25.9544 37.2531 25.6437 36.4314 25.3832C35.6097 25.1026 34.6377 24.802 33.5154 24.4813C32.1726 24.1005 31.0503 23.6797 30.1484 23.2187C29.2465 22.7377 28.5752 22.1365 28.1342 21.415C27.6933 20.6935 27.4729 19.7916 27.4729 18.7094C27.4729 17.2463 27.8136 16.0238 28.495 15.0418C29.1964 14.0397 30.1384 13.2881 31.3208 12.7871C32.5033 12.266 33.816 12.0055 35.259 12.0055C36.2611 12.0055 37.203 12.1157 38.0849 12.3362C38.9867 12.5566 39.8285 12.8472 40.6101 13.208C41.3917 13.5687 42.0932 13.9595 42.7144 14.3804L40.8806 17.7474ZM46.6009 33.5V12.1858H50.7495V22.3168L59.7081 12.1558H64.2775L56.1006 21.6254L64.7886 33.5H60.0989L53.4551 24.3009L50.7495 27.1268V33.5H46.6009ZM69.1159 12.1558L74.3768 22.1966L79.7279 12.1558H84.2072L76.4511 26.0446V33.5H72.3326V25.9844L64.6066 12.1558H69.1159ZM86.5567 33.5V12.1558H94.3128C96.6376 12.1558 98.5817 12.6368 100.145 13.5988C101.708 14.5407 102.881 15.8234 103.662 17.4467C104.444 19.0501 104.835 20.8338 104.835 22.7978C104.835 24.9623 104.404 26.8462 103.542 28.4495C102.68 30.0529 101.458 31.2954 99.8743 32.1773C98.3111 33.0591 96.4573 33.5 94.3128 33.5H86.5567ZM100.656 22.7978C100.656 21.415 100.405 20.2025 99.9044 19.1603C99.4034 18.0981 98.6819 17.2764 97.7399 16.6952C96.798 16.0939 95.6556 15.7933 94.3128 15.7933H90.7053V29.8625H94.3128C95.6756 29.8625 96.828 29.5618 97.77 28.9606C98.7119 28.3393 99.4234 27.4976 99.9044 26.4354C100.405 25.3531 100.656 24.1406 100.656 22.7978ZM108.076 33.5V12.1558H117.515C118.498 12.1558 119.399 12.3562 120.221 12.757C121.063 13.1579 121.784 13.699 122.386 14.3804C123.007 15.0618 123.478 15.8234 123.798 16.6651C124.139 17.5069 124.31 18.3687 124.31 19.2505C124.31 20.1524 124.149 21.0242 123.829 21.8659C123.528 22.6876 123.087 23.4091 122.506 24.0304C121.925 24.6517 121.243 25.1327 120.462 25.4734L125.332 33.5H120.762L116.373 26.3452H112.225V33.5H108.076ZM112.225 22.7076H117.425C117.946 22.7076 118.407 22.5573 118.808 22.2567C119.209 21.936 119.53 21.5152 119.77 20.9941C120.011 20.473 120.131 19.8918 120.131 19.2505C120.131 18.5691 119.991 17.9778 119.71 17.4768C119.429 16.9557 119.069 16.5449 118.628 16.2443C118.207 15.9436 117.746 15.7933 117.245 15.7933H112.225V22.7076ZM137.06 33.6503C135.497 33.6503 134.074 33.3497 132.791 32.7484C131.528 32.1472 130.436 31.3355 129.514 30.3134C128.612 29.2712 127.911 28.1088 127.41 26.8262C126.909 25.5235 126.658 24.1907 126.658 22.8279C126.658 21.4049 126.919 20.0521 127.44 18.7695C127.981 17.4668 128.713 16.3144 129.635 15.3123C130.577 14.2902 131.679 13.4885 132.941 12.9073C134.224 12.3061 135.627 12.0055 137.15 12.0055C138.693 12.0055 140.096 12.3161 141.359 12.9374C142.642 13.5587 143.734 14.3904 144.636 15.4326C145.538 16.4747 146.239 17.6371 146.74 18.9198C147.241 20.2025 147.492 21.5252 147.492 22.888C147.492 24.2909 147.231 25.6437 146.71 26.9464C146.189 28.2291 145.457 29.3815 144.515 30.4036C143.593 31.4057 142.491 32.1973 141.209 32.7785C139.946 33.3597 138.563 33.6503 137.06 33.6503ZM130.867 22.8279C130.867 23.7498 131.007 24.6417 131.288 25.5034C131.569 26.3652 131.969 27.1368 132.49 27.8182C133.032 28.4796 133.683 29.0107 134.445 29.4115C135.226 29.7923 136.108 29.9827 137.09 29.9827C138.092 29.9827 138.984 29.7823 139.766 29.3815C140.547 28.9606 141.199 28.4095 141.72 27.728C142.241 27.0266 142.631 26.255 142.892 25.4132C143.173 24.5515 143.313 23.6897 143.313 22.8279C143.313 21.906 143.163 21.0242 142.862 20.1824C142.581 19.3206 142.171 18.5591 141.629 17.8977C141.108 17.2163 140.457 16.6852 139.675 16.3044C138.914 15.9036 138.052 15.7031 137.09 15.7031C136.068 15.7031 135.166 15.9136 134.384 16.3344C133.623 16.7353 132.981 17.2764 132.46 17.9578C131.939 18.6392 131.539 19.4008 131.258 20.2425C130.997 21.0843 130.867 21.9461 130.867 22.8279ZM154.823 19.7916V33.5H150.674V12.1558H153.981L165.014 26.2249V12.1858H169.162V33.5H165.705L154.823 19.7916ZM188.423 29.8625V33.5H173.602V12.1558H188.152V15.7933H177.751V20.934H186.739V24.3009H177.751V29.8625H188.423Z" fill="#393939"/>
</svg>
